<svg width="42" height="31" viewBox="0 0 42 31" fill="none" xmlns="http://www.w3.org/2000/svg">
<path d="M15.5971 4.10104C17.1592 3.05724 18.9958 2.50008 20.8746 2.5C23.393 2.50412 25.8071 3.50638 27.5878 5.28716C29.3687 7.06803 30.371 9.48226 30.375 12.0008C30.3748 13.8794 29.8177 15.7159 28.774 17.2779C27.7301 18.8402 26.2464 20.0578 24.5105 20.7769C22.7746 21.4959 20.8645 21.684 19.0216 21.3175C17.1788 20.9509 15.4861 20.0461 14.1575 18.7175C12.8289 17.3889 11.9241 15.6962 11.5575 13.8534C11.191 12.0105 11.3791 10.1004 12.0981 8.36451C12.8172 6.62861 14.0348 5.14491 15.5971 4.10104ZM22.125 16V13.25H24.875C25.2065 13.25 25.5245 13.1183 25.7589 12.8839C25.9933 12.6495 26.125 12.3315 26.125 12C26.125 11.6685 25.9933 11.3505 25.7589 11.1161C25.5245 10.8817 25.2065 10.75 24.875 10.75H22.125V8C22.125 7.66848 21.9933 7.35054 21.7589 7.11612C21.5245 6.8817 21.2065 6.75 20.875 6.75C20.5435 6.75 20.2255 6.8817 19.9911 7.11612C19.7567 7.35054 19.625 7.66848 19.625 8V10.75H16.875C16.5435 10.75 16.2255 10.8817 15.9911 11.1161C15.7567 11.3505 15.625 11.6685 15.625 12C15.625 12.3315 15.7567 12.6495 15.9911 12.8839C16.2255 13.1183 16.5435 13.25 16.875 13.25H19.625V16C19.625 16.3315 19.7567 16.6495 19.9911 16.8839C20.2255 17.1183 20.5435 17.25 20.875 17.25C21.2065 17.25 21.5245 17.1183 21.7589 16.8839C21.9933 16.6495 22.125 16.3315 22.125 16Z" fill="#0A8080" stroke="#0A8080"/>
<circle cx="20.875" cy="29.5" r="1.5" fill="#0A8080"/>
</svg>
