<svg width="42" height="24" viewBox="0 0 42 24" fill="none" xmlns="http://www.w3.org/2000/svg">
<path d="M21.145 2.91C19.5537 2.91 18.0276 3.54214 16.9024 4.66736C15.7771 5.79258 15.145 7.3187 15.145 8.91V11.8C15.113 12.5209 14.9181 13.2252 14.575 13.86L13.425 15.77C13.2533 16.0225 13.1443 16.3124 13.1071 16.6155C13.0699 16.9187 13.1056 17.2263 13.2113 17.5128C13.3169 17.7994 13.4894 18.0566 13.7144 18.2631C13.9394 18.4696 14.2105 18.6193 14.505 18.7C18.8111 20.14 23.4689 20.14 27.775 18.7C28.0594 18.6051 28.3189 18.4475 28.5342 18.2389C28.7495 18.0302 28.9151 17.7758 29.0188 17.4944C29.1225 17.2131 29.1617 16.9121 29.1333 16.6136C29.1049 16.3151 29.0098 16.0268 28.855 15.77L27.705 13.86C27.3695 13.2227 27.1783 12.5194 27.145 11.8V8.91C27.1403 7.32017 26.5066 5.7968 25.3824 4.67261C24.2582 3.54842 22.7348 2.91475 21.145 2.91Z" stroke="#71717A" stroke-width="1.5" stroke-linecap="round"/>
<path d="M22.995 3.20024C22.6809 3.10772 22.3599 3.04083 22.035 3.00024C21.1176 2.87848 20.185 2.94656 19.295 3.20024C19.4411 2.8287 19.6958 2.50977 20.0258 2.285C20.3557 2.06022 20.7457 1.94 21.145 1.94C21.5442 1.94 21.9342 2.06022 22.2642 2.285C22.5942 2.50977 22.8488 2.8287 22.995 3.20024Z" stroke="#71717A" stroke-width="1.5" stroke-linecap="round" stroke-linejoin="round"/>
<path d="M24.145 19.06C24.1426 19.8549 23.8258 20.6166 23.2637 21.1787C22.7016 21.7408 21.9399 22.0576 21.145 22.06C20.3499 22.0581 19.5878 21.7417 19.025 21.18C18.4633 20.6172 18.1469 19.8551 18.145 19.06" stroke="#71717A" stroke-width="1.5"/>
</svg>
