<svg width="79" height="78" viewBox="0 0 79 78" fill="none" xmlns="http://www.w3.org/2000/svg">
<path d="M61.7615 32.6313V60.7994C61.7615 69.7654 54.4886 76.9999 45.561 76.9999H17.2005C8.27291 76.9999 1 69.727 1 60.7994V32.6313C1 23.6652 8.27291 16.4308 17.2005 16.4308H45.561C54.4886 16.4308 61.7615 23.7037 61.7615 32.6313Z" fill="#868686" stroke="#292D32" stroke-width="2" stroke-linecap="round" stroke-linejoin="round"/>
<path d="M14.4673 7.73418V1V7.73418Z" fill="#868686"/>
<path d="M14.4673 7.73418V1" stroke="#292D32" stroke-width="2" stroke-linecap="round" stroke-linejoin="round"/>
<path d="M29.8616 7.73418V1V7.73418Z" fill="#868686"/>
<path d="M29.8616 7.73418V1" stroke="#292D32" stroke-width="2" stroke-linecap="round" stroke-linejoin="round"/>
<path d="M45.2537 7.73418V1V7.73418Z" fill="#868686"/>
<path d="M45.2537 7.73418V1" stroke="#292D32" stroke-width="2" stroke-linecap="round" stroke-linejoin="round"/>
<path d="M77.9589 42.9829C77.9589 51.9105 70.686 59.1834 61.7584 59.1834V26.7822C70.686 26.7822 77.9589 34.0168 77.9589 42.9829Z" fill="#868686" stroke="#292D32" stroke-width="2" stroke-linecap="round" stroke-linejoin="round"/>
<path d="M1 38.5189H60.6841H1Z" fill="#868686"/>
<path d="M1 38.5189H60.6841" stroke="#292D32" stroke-width="2" stroke-linecap="round" stroke-linejoin="round"/>
</svg>
