<svg width="24" height="25" viewBox="0 0 24 25" fill="none" xmlns="http://www.w3.org/2000/svg">
<path d="M11 2.5H9C4 2.5 2 4.5 2 9.5V15.5C2 20.5 4 22.5 9 22.5H15C20 22.5 22 20.5 22 15.5V13.5" stroke="#27272A" stroke-width="1.5" stroke-linecap="round" stroke-linejoin="round"/>
<path d="M16.04 3.52001L8.16002 11.4C7.82223 11.7705 7.59377 12.2275 7.50002 12.72L7.07002 15.73C7.01779 15.964 7.0255 16.2075 7.09243 16.4377C7.15937 16.668 7.28336 16.8776 7.45291 17.0471C7.62246 17.2167 7.83208 17.3407 8.06233 17.4076C8.29258 17.4745 8.536 17.4822 8.77002 17.43L11.78 17C12.2711 16.902 12.727 16.6741 13.1 16.34L20.98 8.46001C22.34 7.10001 22.98 5.52001 20.98 3.52001C18.98 1.52001 17.4 2.16001 16.04 3.52001Z" stroke="#27272A" stroke-width="1.5" stroke-linecap="round" stroke-linejoin="round"/>
<path d="M14.91 4.64999C15.2416 5.82746 15.8699 6.90006 16.7349 7.76504C17.5999 8.63002 18.6725 9.2584 19.85 9.58999" stroke="#27272A" stroke-width="1.5" stroke-linecap="round" stroke-linejoin="round"/>
</svg>
