<svg width="47" height="31" viewBox="0 0 47 31" fill="none" xmlns="http://www.w3.org/2000/svg">
<rect width="24" height="24" transform="translate(11.5)" fill="white"/>
<path d="M20.52 2.84001L15.13 7.04001C14.6505 7.45661 14.2592 7.96499 13.9793 8.53518C13.6993 9.10538 13.5364 9.72584 13.5 10.36V17.77C13.5013 18.8871 13.945 19.9582 14.7339 20.749C15.5229 21.5398 16.5929 21.986 17.71 21.99H29.29C30.4055 21.9866 31.4743 21.5419 32.2631 20.7531C33.0519 19.9644 33.4966 18.8955 33.5 17.78V10.5C33.4623 9.83009 33.2822 9.1759 32.9718 8.58101C32.6614 7.98613 32.2279 7.46421 31.7 7.05001L25.52 2.71701C24.7685 2.23893 23.8917 1.99534 23.0013 2.01724C22.1109 2.03915 21.2471 2.32556 20.52 2.84001Z" fill="#0A8080" stroke="#FAFAFA" stroke-width="1.5" stroke-linecap="round" stroke-linejoin="round"/>
<path d="M23.5 17.99V14.99" stroke="#FAFAFA" stroke-width="1.5" stroke-linecap="round" stroke-linejoin="round"/>
<circle cx="23.5" cy="29.5" r="1.5" fill="#0A8080"/>
</svg>
