<svg width="42" height="24" viewBox="0 0 42 24" fill="none" xmlns="http://www.w3.org/2000/svg">
<path d="M21.535 10.87C21.4252 10.86 21.3148 10.86 21.205 10.87C20.0412 10.8268 18.9409 10.3285 18.1406 9.48242C17.3404 8.63632 16.9041 7.50994 16.9258 6.34555C16.9474 5.18115 17.4251 4.07175 18.2562 3.25593C19.0873 2.44012 20.2054 1.98306 21.37 1.98306C22.5346 1.98306 23.6527 2.44012 24.4838 3.25593C25.3149 4.07175 25.7926 5.18115 25.8142 6.34555C25.8358 7.50994 25.3996 8.63632 24.5994 9.48242C23.7991 10.3285 22.6988 10.8268 21.535 10.87Z" stroke="#71717A" stroke-width="1.5" stroke-linecap="round" stroke-linejoin="round"/>
<path d="M16.535 14.561C14.115 16.181 14.115 18.821 16.535 20.431C18.0483 21.3342 19.7777 21.811 21.54 21.811C23.3023 21.811 25.0317 21.3342 26.545 20.431C28.965 18.811 28.965 16.171 26.545 14.561C25.0301 13.6626 23.3013 13.1885 21.54 13.1885C19.7787 13.1885 18.0499 13.6626 16.535 14.561Z" stroke="#71717A" stroke-width="1.5" stroke-linecap="round" stroke-linejoin="round"/>
</svg>
