<svg width="36" height="37" viewBox="0 0 36 37" fill="none" xmlns="http://www.w3.org/2000/svg">
<path d="M27.8441 15.6509V28.2524C27.8441 32.2635 24.6309 35.5 20.6868 35.5H8.15728C4.21313 35.5 1 32.2463 1 28.2524V15.6509C1 11.6397 4.21313 8.40326 8.15728 8.40326H20.6868C24.6309 8.40326 27.8441 11.6569 27.8441 15.6509Z" fill="#868686" stroke="#292D32" stroke-width="2" stroke-linecap="round" stroke-linejoin="round"/>
<path d="M6.94977 4.51266V1.5V4.51266Z" fill="#868686"/>
<path d="M6.94977 4.51266V1.5" stroke="#292D32" stroke-width="2" stroke-linecap="round" stroke-linejoin="round"/>
<path d="M13.7509 4.51266V1.5V4.51266Z" fill="#868686"/>
<path d="M13.7509 4.51266V1.5" stroke="#292D32" stroke-width="2" stroke-linecap="round" stroke-linejoin="round"/>
<path d="M20.551 4.51266V1.5V4.51266Z" fill="#868686"/>
<path d="M20.551 4.51266V1.5" stroke="#292D32" stroke-width="2" stroke-linecap="round" stroke-linejoin="round"/>
<path d="M35 20.2819C35 24.2758 31.7869 27.5295 27.8427 27.5295V13.0342C31.7869 13.0342 35 16.2707 35 20.2819Z" fill="#868686" stroke="#292D32" stroke-width="2" stroke-linecap="round" stroke-linejoin="round"/>
<path d="M1 18.2848H27.368H1Z" fill="#868686"/>
<path d="M1 18.2848H27.368" stroke="#292D32" stroke-width="2" stroke-linecap="round" stroke-linejoin="round"/>
</svg>
